<svg width="54" height="24" viewBox="0 0 54 24" fill="none" xmlns="http://www.w3.org/2000/svg">
<path d="M12.3082 20.3835C8.3456 20.3835 5.56994 17.4983 5.56994 13.4078C5.56994 9.29913 8.3456 6.41391 12.3082 6.43217C14.1708 6.43217 15.8508 7.21739 17.056 8.45913L15.5404 10.0661C14.8099 9.11652 13.5865 8.47739 12.2899 8.47739C9.64212 8.47739 7.9256 10.413 7.9256 13.4078C7.9256 16.3843 9.64212 18.32 12.2899 18.32C13.7326 18.32 14.7917 17.6078 15.4308 16.8043L17.056 18.3383C15.8508 19.58 14.3352 20.4017 12.3082 20.3835ZM24.8021 15.453C24.8021 14.047 24.1995 13.207 23.2499 13.207C22.0812 13.207 21.2777 14.2296 21.2777 15.5443V20H18.9221V7.05304H21.2777V12.2757C21.8803 11.4904 22.7934 11.2165 23.3412 11.2165C25.6421 11.2165 27.176 12.86 27.176 15.1609V20H24.8021V15.453ZM29.1835 11.3443H31.5392V20.2374H29.1835V11.3443ZM30.3705 6.87044C31.1009 6.87044 31.6305 7.4 31.6305 8.13044C31.6305 8.87913 31.1009 9.4087 30.3705 9.4087C29.6218 9.4087 29.0922 8.87913 29.0922 8.13044C29.0922 7.4 29.6218 6.87044 30.3705 6.87044ZM37.3533 20.3104C34.8881 20.3104 33.2263 18.4478 33.2263 15.8365C33.2263 13.2252 34.8881 11.3809 37.3533 11.3809C38.1567 11.3809 39.1246 11.7096 39.782 12.5496V11.3626H42.1376V20.2557H39.782V19.1417C39.1246 20 38.1567 20.3104 37.3533 20.3104ZM37.6272 18.3565C38.8141 18.3565 39.782 17.2974 39.8002 15.8365C39.782 14.3757 38.8141 13.3165 37.6272 13.3165C36.3672 13.3165 35.582 14.2843 35.582 15.8365C35.582 17.3887 36.3672 18.3565 37.6272 18.3565ZM47.8406 5.79304L47.4936 16.1652H45.211L44.791 5.79304H47.8406ZM46.3614 17.973C47.1101 17.973 47.6397 18.5026 47.6397 19.2696C47.6397 20.0183 47.1101 20.5661 46.3614 20.5661C45.5945 20.5661 45.0649 20.0183 45.0649 19.2696C45.0649 18.5026 45.5945 17.973 46.3614 17.973Z" fill="#287DFA"/>
</svg>
