<svg width="23" height="20" viewBox="0 0 23 20" fill="none" xmlns="http://www.w3.org/2000/svg">
<path d="M11.342 0.0517578C13.291 0.0517578 15.0937 0.430737 16.7499 1.18869C18.4062 1.94665 19.7156 2.97731 20.678 4.28069C21.6406 5.58406 22.1218 7.0057 22.1218 8.54569C22.1218 10.0856 21.6406 11.5093 20.678 12.8167C19.7156 14.1241 18.4082 15.1568 16.756 15.9147C15.1037 16.6726 13.299 17.0517 11.342 17.0517C10.7244 17.0517 10.0867 17.0075 9.42904 16.9193C6.57365 18.9004 5.05372 19.903 4.86924 19.927C4.78103 19.9592 4.69683 19.9552 4.61662 19.9151C4.58451 19.891 4.56044 19.8589 4.5444 19.8188C4.52837 19.7787 4.52033 19.7426 4.52033 19.7105V19.6624C4.56848 19.3496 4.93341 18.0462 5.61518 15.7523C4.06718 14.9823 2.83801 13.9617 1.92766 12.6904C1.01731 11.4191 0.562134 10.0375 0.562134 8.54569C0.562134 7.0057 1.04338 5.58406 2.00586 4.28069C2.96835 2.97731 4.27773 1.94665 5.93402 1.18869C7.59029 0.430737 9.39294 0.0517578 11.342 0.0517578Z" fill="black"/>
</svg>
